<svg width="256" height="256" viewBox="0 0 256 256" fill="none" xmlns="http://www.w3.org/2000/svg">
  <rect width="256" height="256" rx="64" fill="#111827"/>
  <path d="M106.72 176V80H144.32C154.24 80 162.24 82.56 168.32 87.68C174.507 92.6933 177.6 99.6267 177.6 108.48C177.6 117.333 174.507 124.373 168.32 129.6C162.24 134.72 154.24 137.28 144.32 137.28H122.08V176H106.72ZM122.08 123.84H144.32C149.653 123.84 153.92 122.347 157.12 119.36C160.32 116.267 161.92 112.64 161.92 108.48C161.92 104.32 160.32 100.8 157.12 97.92C153.92 94.9333 149.653 93.44 144.32 93.44H122.08V123.84Z" fill="white"/>
</svg>
